<?xml version="1.0" encoding="utf-8"?>
<!-- Generator: Adobe Illustrator 27.1.1, SVG Export Plug-In . SVG Version: 6.00 Build 0)  -->
<svg version="1.1" id="apple" xmlns="http://www.w3.org/2000/svg" xmlns:xlink="http://www.w3.org/1999/xlink" x="0px" y="0px"
	 viewBox="0 0 106.1 122.9" style="enable-background:new 0 0 106.1 122.9;" xml:space="preserve">
<style type="text/css">
	.st0{fill-rule:evenodd;clip-rule:evenodd;fill:#D3141B;}
	.st1{fill-rule:evenodd;clip-rule:evenodd;fill:#7DB820;}
	.st2{fill-rule:evenodd;clip-rule:evenodd;fill:#537918;}
	.st3{fill-rule:evenodd;clip-rule:evenodd;fill:#543429;}
	.st4{fill-rule:evenodd;clip-rule:evenodd;fill:#FFFFFF;}

	#apple:hover #apple-body{
		fill: #ff0008;
		transition: all 0.5s ease-in-out;
	}
	#apple:hover #branch {
		fill: #422217;
		transition: all .7s ease-in-out;
		transform-origin: bottom center;
		transform: scale(1, 1.014);
	  }
	  #apple:hover #leaf{
		fill: #7dc805;
		transition: all 0.5s ease-in-out;
	  }
	  

</style>
 <script>
const apple = document.querySelector("#apple");

function logId() {
	console.log(this.id)
}

apple.addEventListener("click", logId);
 </script>
<g>
	<path id="apple-body" class="st0" d="M41.6,31.9C7.8,21.3-10.8,60,6.7,90.7c5.2,9.2,11.6,18.7,21.4,27.2c9.3,6.7,17.6,5.8,25.2,1.6
		c6,2.9,12.4,4,19.3,1.4C82.7,117.2,93,102.2,97.9,93c10.6-20.3,14.2-46.3-9.4-59c-6.4-3.5-14.5-4.5-24.7-2.2
		C56.9,34.2,48.4,33.9,41.6,31.9L41.6,31.9z"/>
	<path id="leaf" class="st1" d="M34,28.1c5.2,0.6,10.7-0.5,16.7-3.8l1.1-5.8C45.3,7,34.3,1.1,16.2,3.9L9.1,4.6
		C14.3,15.4,20.7,26.5,34,28.1L34,28.1L34,28.1z"/>
	<path id="inside-leaf" class="st2" d="M17.3,8.5c11.9,4.1,19.5,5.7,29.5,13.4C35.1,18.1,27.6,15.6,17.3,8.5L17.3,8.5z"/>
	<path id="branch" class="st3" d="M50.1,25.8L50.1,25.8c-0.3,2.5-0.4,4.8-0.4,7.6l6.3,0.1c-0.1-5.3,0.6-9.9,2-14.1c1.8-5.6,4.9-10.2,9.1-14.1
		c1.3-1.2,1.4-3.2,0.2-4.4c-1.2-1.3-3.2-1.4-4.5-0.2c-5,4.6-8.6,10.1-10.8,16.8c-0.3,0.9-0.5,1.8-0.8,2.6l0-0.1L50.1,25.8L50.1,25.8
		z"/>
	<path class="st4" d="M16.9,78.6c1.2-0.4,2.6,0.2,3,1.5c1.4,4,3.4,7.7,5.9,11c2.6,3.3,5.6,6.4,9.1,9.2c1,0.8,1.2,2.3,0.3,3.4
		c-0.8,1-2.3,1.2-3.4,0.3c-3.7-3-7.1-6.3-9.9-10c-2.8-3.7-5.1-7.8-6.6-12.4C14.9,80.4,15.6,79,16.9,78.6L16.9,78.6L16.9,78.6z"/>
</g>
</svg>