<?xml version="1.0" encoding="utf-8"?>
<svg version="1.1" id="grape-icon" xmlns="http://www.w3.org/2000/svg" xmlns:xlink="http://www.w3.org/1999/xlink" x="0px" y="0px"
	 viewBox="0 0 94.6 122.9" style="enable-background:new 0 0 94.6 122.9;" xml:space="preserve">

	<style type="text/css">
        .st0{fill:#5B2C06;}
        .st1{fill-rule:evenodd;clip-rule:evenodd;fill:#FFFFFF;}
        .st2{fill:#6EC030;}
        .st3{fill:#FFFFFF;}
        .st4{fill:#4DA900;}
<!-- 
        .st2{transition: all .8s ease;}
    .st4{transition: all .8s ease;} -->
    #grape-icon:hover #branches{
        fill: rgb(55, 4, 4);
        transition: all .8s ease;
    }   

    #grape-icon:hover #grape-color{
        fill: rgb(200, 200, 31);
        transition: all .8s ease;
		scale:1.01;
    }
       #grape-icon:hover .st4 {
            fill: orangered;
            transition: all .8s ease;
        }
    </style>
    

<g>
	<path id="branches" class="st0" d="M41.6,35.8c0-0.3,0-0.6,0-0.8c-9.1,0.9-20.9-4.7-26.9-11.3C9.4,17.9,7.2,10.4,6.2,0
		c3.8-0.2,7.5,0.1,11.3,1C32,4.5,40,16.4,41.5,30.4c0.3-6.2,2-11.5,4.7-15.7c3.6-5.5,8.9-9.2,15.4-11c2.1-0.6,4.4-1,6.7-1.2
		c1.9-0.1,3.6,1.3,3.7,3.2c0.1,1.9-1.3,3.6-3.2,3.7s-3.7,0.4-5.3,0.9c-4.9,1.4-8.8,4.1-11.5,8.1c-2.7,4.2-4,9.8-3.5,16.9l1.7,9.4
		l-3.6,6.6L44.3,49L42,44.6C41.8,43.6,41.7,36.9,41.6,35.8L41.6,35.8z"/>
	<path class="st1" d="M13.4,6.2c11.5,9,15.1,10.6,23.1,22.9C25.1,20.2,22.1,17.7,13.4,6.2L13.4,6.2z"/>
	<path id="grape-color" class="st2" d="M24.9,93.8c-0.8,0.6-1.7,1.1-2.6,1.6c-0.6,0.4-1.1,0.9-1.6,1.4c-2.8,2.8-4.5,6.6-4.5,10.8
		c0,4.2,1.7,8.1,4.5,10.8c2.8,2.8,6.6,4.5,10.8,4.5c2.4,0,4.6-0.5,6.6-1.5c0.6-0.3,1.1-0.7,1.7-1c0.9-0.6,1.7-1.2,2.5-2
		c2.2-2.2,3.7-5.1,4.3-8.3c0.8,2.8,2.2,5.4,4.2,7.4c3,2.9,7,4.8,11.6,4.8c2.5,0,4.9-0.6,7.1-1.6c0.6-0.4,1.2-0.7,1.9-1.1
		c0.9-0.6,1.8-1.3,2.6-2.1c2.9-3,4.8-7.1,4.8-11.6c0-4.5-1.8-8.6-4.8-11.6c-3-2.9-7.1-4.8-11.6-4.8c-1.2,0-2.4,0.1-3.6,0.4
		c2.4-2.8,3.8-6.4,3.8-10.4h0c0-4.4-1.7-8.4-4.5-11.2l0,0c-2.8-2.9-6.7-4.7-11-4.7c-2.1,0-4.2,0.4-6,1.2c0.4-0.3,0.8-0.7,1.2-1.1
		c2.2-2.2,3.8-5.2,4.3-8.5c0.7,2.6,2.1,5,4,6.8c2.8,2.8,6.7,4.6,11.1,4.6l0,0c2.5,0,4.9-0.6,7-1.6c-0.5,0.4-0.9,0.8-1.4,1.2
		c-2.9,2.9-4.7,6.9-4.7,11.3s1.8,8.4,4.7,11.3c2.9,2.9,6.9,4.7,11.3,4.7v0c4.4,0,8.4-1.8,11.3-4.7c2.9-2.9,4.7-6.9,4.7-11.3
		s-1.8-8.4-4.7-11.3l0,0c-2.9-2.9-6.9-4.7-11.3-4.7c-2.6,0-4.9,0.6-7.1,1.7c0.4-0.3,0.9-0.7,1.2-1.1c2.8-2.8,4.6-6.8,4.6-11.1
		c0-4.3-1.7-8.2-4.6-11.1l0,0c-2.8-2.8-6.8-4.6-11.1-4.6c-4.3,0-8.2,1.8-11.1,4.6c-2.3,2.3-3.9,5.3-4.4,8.8
		c-0.7-2.5-2.1-4.8-3.9-6.6l0,0c-2.8-2.8-6.6-4.5-10.8-4.5c-4.2,0-8.1,1.7-10.8,4.5c-2.8,2.8-4.5,6.6-4.5,10.8c0,4.2,1.7,8,4.5,10.8
		c0.6,0.6,1.3,1.2,2,1.7c-2-0.9-4.3-1.4-6.7-1.4c-4.4,0-8.4,1.8-11.3,4.7C1.8,71.7,0,75.7,0,80.1c0,4.4,1.8,8.4,4.7,11.3
		C7.6,94.3,11.6,96,16,96c4.4,0,8.4-1.8,11.3-4.7c2.4-2.4,4-5.5,4.5-9c0.6,3.3,2.1,6.2,4.3,8.4c2.8,2.9,6.7,4.7,11,4.7
		c1,0,2-0.1,3-0.3c-2,2.3-3.4,5.1-3.8,8.3c-0.7-2.6-2.1-4.8-3.9-6.7c-2.8-2.8-6.6-4.5-10.8-4.5C29.2,92.3,26.9,92.8,24.9,93.8
		L24.9,93.8L24.9,93.8z M37.5,67.1c-0.5,0.4-1,0.8-1.4,1.3c-2.3,2.3-3.9,5.4-4.4,8.9c-0.6-3.3-2.2-6.2-4.4-8.5l0,0
		c-0.7-0.7-1.4-1.3-2.2-1.8c1.9,0.9,4.1,1.4,6.4,1.4l0,0C33.6,68.3,35.7,67.9,37.5,67.1L37.5,67.1z"/>
	<path class="st3" d="M62.2,89.1c-0.2-0.4-0.4-0.8-0.6-1.1c-0.2,0.4-0.4,0.8-0.7,1.2C61.3,89.1,61.8,89.1,62.2,89.1L62.2,89.1
		L62.2,89.1z"/>
	<path class="st3" d="M62.2,70.8c-0.7,0-1.4-0.1-2.1-0.2c0.4,0.6,0.8,1.2,1.2,1.9C61.6,71.9,61.8,71.3,62.2,70.8L62.2,70.8
		L62.2,70.8z"/>
	<path class="st3" d="M46.9,61.3c-0.5,0.9-1,1.7-1.7,2.5c0.4,0,0.8,0,1.3,0c0.7,0,1.3,0,2,0.1C48,63,47.4,62.2,46.9,61.3L46.9,61.3
		L46.9,61.3z"/>
	<path class="st3" d="M31.6,70.5c0.2,0.4,0.5,0.8,0.7,1.2c0.3-0.4,0.6-0.8,0.9-1.3C32.7,70.5,32.1,70.5,31.6,70.5L31.6,70.5
		L31.6,70.5z"/>
	<path class="st1" d="M68,42c-0.4-0.1-0.6-0.5-0.5-0.8c0.1-0.4,0.5-0.6,0.8-0.5c1.6,0.4,2.7,1.2,3.4,2.2c0.7,1.1,1.1,2.4,1.1,4.1
		c0,0.4-0.3,0.7-0.7,0.7c-0.4,0-0.7-0.3-0.7-0.7c0-1.4-0.3-2.5-0.9-3.3C70,42.8,69.2,42.3,68,42L68,42L68,42z"/>
	<path class="st1" d="M83.9,69.9c-0.4-0.1-0.6-0.5-0.5-0.8c0.1-0.4,0.5-0.6,0.8-0.5c1.6,0.4,2.7,1.2,3.4,2.2
		c0.7,1.1,1.1,2.4,1.1,4.1c0,0.4-0.3,0.7-0.7,0.7c-0.4,0-0.7-0.3-0.7-0.7c0-1.4-0.3-2.5-0.9-3.3C86,70.8,85.2,70.2,83.9,69.9
		L83.9,69.9L83.9,69.9z"/>
	<path class="st4" d="M63.5,73.4c-0.5,1.6-0.8,3.2-0.8,5l0,0h0c0,4.2,1.7,8.1,4.5,10.8c2.8,2.8,6.6,4.5,10.8,4.5l0,0
		c2.5,0,4.9-0.6,7-1.7c0.4-0.3,0.8-0.5,1.3-0.8c0.9-0.6,1.7-1.3,2.5-2c2.4-2.4,4-5.6,4.4-9.2c-0.8,2.2-2,4.2-3.7,5.8
		c-0.8,0.8-1.6,1.4-2.5,2c-0.4,0.2-0.9,0.5-1.3,0.8c-2.1,1.1-4.5,1.7-7,1.7l0,0c-4.2,0-8.1-1.7-10.8-4.5c-2.8-2.8-4.5-6.6-4.5-10.8
		h0l0,0C63.4,74.5,63.4,73.9,63.5,73.4L63.5,73.4z"/>
	<path class="st1" d="M25.9,45.9c0.4-0.1,0.6-0.5,0.5-0.8s-0.5-0.6-0.8-0.5c-1.5,0.4-2.7,1.2-3.4,2.2c-0.7,1.1-1.1,2.4-1.1,4.1
		c0,0.4,0.3,0.7,0.7,0.7c0.4,0,0.7-0.3,0.7-0.7c0-1.4,0.3-2.5,0.9-3.3C23.9,46.8,24.7,46.2,25.9,45.9L25.9,45.9L25.9,45.9z"/>
	<path class="st1" d="M10,73.8c0.4-0.1,0.6-0.5,0.5-0.8s-0.5-0.6-0.8-0.5c-1.6,0.4-2.7,1.2-3.4,2.2c-0.7,1.1-1.1,2.4-1.1,4.1
		c0,0.4,0.3,0.7,0.7,0.7c0.4,0,0.7-0.3,0.7-0.7c0-1.4,0.3-2.5,0.9-3.3C7.9,74.7,8.8,74.1,10,73.8L10,73.8L10,73.8z"/>
	<path class="st4" d="M46.9,46c-0.5,1.6-0.8,3.3-0.8,5.1l0,0h0c0,1.4,0.2,2.8,0.5,4.1c-0.8,2-2,3.8-3.5,5.3c-0.8,0.8-1.6,1.4-2.5,2
		c-0.5,0.2-0.9,0.5-1.3,0.8c-2.1,1.1-4.5,1.7-7,1.7l0,0c-4.2,0-8.1-1.7-10.8-4.5c-2.8-2.8-4.5-6.6-4.5-10.8h0l0,0
		c0-0.6,0-1.1,0.1-1.7c-0.5,1.6-0.8,3.2-0.8,5l0,0h0c0,4.2,1.7,8,4.5,10.8c2.8,2.8,6.6,4.5,10.8,4.5l0,0c2.5,0,4.9-0.6,7-1.7
		c0.4-0.3,0.8-0.5,1.3-0.8c0.9-0.6,1.7-1.3,2.5-2c2.2-2.2,3.8-5.1,4.3-8.3c0.7,2.6,2.1,4.9,4,6.7c2.8,2.8,6.7,4.6,11.1,4.6l0,0
		c2.6,0,5-0.6,7.2-1.8c0.4-0.3,0.9-0.5,1.3-0.8c0.9-0.6,1.8-1.3,2.5-2.1c2.4-2.5,4.1-5.7,4.5-9.4c-0.8,2.3-2.1,4.3-3.7,6
		c-0.8,0.8-1.6,1.5-2.5,2.1c-0.5,0.2-0.9,0.5-1.3,0.8c-2.2,1.1-4.6,1.8-7.2,1.8l0,0c-4.3,0-8.2-1.8-11.1-4.6
		c-2.8-2.8-4.6-6.8-4.6-11.1h0l0,0C46.8,47.2,46.8,46.6,46.9,46L46.9,46z M47,100.6c-0.6,1.7-0.9,3.5-0.9,5.3l0,0h0
		c0,1.3,0.2,2.7,0.5,3.9c-0.8,2-2,3.8-3.4,5.3c-0.8,0.8-1.6,1.4-2.5,2c-0.5,0.2-0.9,0.5-1.3,0.8c-2.1,1.1-4.5,1.7-7,1.7l0,0
		c-4.2,0-8.1-1.7-10.8-4.5c-2.8-2.8-4.5-6.6-4.5-10.8h0l0,0c0-0.6,0-1.1,0.1-1.7c-0.5,1.6-0.8,3.2-0.8,5l0,0h0
		c0,4.2,1.7,8.1,4.5,10.8c2.8,2.8,6.6,4.5,10.8,4.5l0,0c2.5,0,4.9-0.6,7-1.7c0.4-0.3,0.8-0.5,1.3-0.8c0.9-0.6,1.7-1.3,2.5-2
		c2.2-2.2,3.7-5.1,4.3-8.2c0.8,2.8,2.2,5.3,4.2,7.3c3,3,7,4.8,11.6,4.8l0,0c2.7,0,5.3-0.7,7.5-1.8c0.4-0.3,0.9-0.6,1.4-0.8
		c1-0.6,1.8-1.3,2.7-2.2c2.6-2.6,4.3-6,4.7-9.8c-0.8,2.4-2.2,4.5-3.9,6.2c-0.8,0.8-1.7,1.5-2.7,2.2c-0.5,0.2-0.9,0.5-1.4,0.8
		c-2.3,1.2-4.8,1.8-7.5,1.8l0,0c-4.5,0-8.6-1.8-11.6-4.8c-3-3-4.8-7.1-4.8-11.6h0l0,0C46.9,101.8,46.9,101.2,47,100.6L47,100.6z
		 M32.7,74.7c-0.5,1.6-0.8,3.3-0.8,5.1l0,0h0c0,4.3,1.7,8.2,4.5,11.1c2.8,2.8,6.6,4.6,10.8,4.6l0,0c2.5,0,4.9-0.6,7-1.8
		c0.4-0.3,0.8-0.5,1.3-0.8c0.9-0.6,1.7-1.3,2.5-2.1c2.4-2.4,4-5.7,4.4-9.4c-0.8,2.3-2,4.3-3.7,6c-0.8,0.8-1.6,1.5-2.5,2.1
		c-0.5,0.2-0.9,0.5-1.3,0.8c-2.1,1.1-4.5,1.8-7,1.8l0,0c-4.2,0-8.1-1.8-10.8-4.6c-2.8-2.8-4.5-6.8-4.5-11.1h0l0,0
		C32.6,75.8,32.6,75.3,32.7,74.7L32.7,74.7z M0.8,75.8C0.3,77.3,0,79,0,80.8l0,0h0c0,4.2,1.7,8.1,4.5,10.8c2.8,2.8,6.6,4.5,10.8,4.5
		l0,0c2.5,0,4.9-0.6,7-1.7c0.4-0.3,0.9-0.5,1.3-0.8c0.9-0.6,1.7-1.3,2.5-2c2.4-2.4,4-5.6,4.4-9.2c-0.8,2.2-2,4.2-3.6,5.8
		c-0.8,0.8-1.6,1.4-2.5,2c-0.5,0.2-0.9,0.5-1.3,0.8c-2.1,1.1-4.5,1.7-7,1.7l0,0c-4.2,0-8.1-1.7-10.8-4.5c-2.8-2.8-4.5-6.6-4.5-10.8
		h0l0,0C0.8,76.9,0.8,76.3,0.8,75.8L0.8,75.8z"/>
</g>
</svg>