<?xml version="1.0" encoding="utf-8"?>
<!-- Generator: Adobe Illustrator 27.1.1, SVG Export Plug-In . SVG Version: 6.00 Build 0)  -->
<svg version="1.1" id="Layer_1" xmlns="http://www.w3.org/2000/svg" xmlns:xlink="http://www.w3.org/1999/xlink" x="0px" y="0px"
	 viewBox="0 0 122.9 120.6" style="enable-background:new 0 0 122.9 120.6;" xml:space="preserve">
<style type="text/css">
	.st0{fill:#FFCE01;}
</style>
<g>
	<path class="st0" d="M72.3,64.3c0.1,0,0.1-0.1,0.2-0.1c0.1-0.1,0.2-0.1,0.3-0.1c0.3-0.2,0.6-0.4,0.9-0.7c0.9-0.9,1.4-2.1,1.4-3.4
		s-0.5-2.6-1.4-3.4c-0.7-0.7-1.6-1.2-2.7-1.3c-0.1,0-0.3,0-0.4,0c-0.1,0-0.2,0-0.3,0c-1.3,0-2.4,0.5-3.3,1.4
		c-0.1,0.1-0.1,0.2-0.2,0.2c0,0-0.1,0.1-0.1,0.1c-0.7,0.8-1.1,1.9-1.1,3.1c0,1.3,0.5,2.6,1.4,3.4c0.8,0.9,2,1.4,3.3,1.4
		C71.1,64.8,71.7,64.6,72.3,64.3L72.3,64.3L72.3,64.3z M91.3,7.6c12.4,7.6,22.8,20.2,28,36.2s4.5,32.3-1,45.7
		c-5.6,13.6-15.9,24.3-29.8,28.8c-9,3-32.1,2.8-42.3,0.8C19.9,113.9,0,89.8,0,61C0,14.9,54.6-14.7,91.3,7.6L91.3,7.6L91.3,7.6z
		 M88.9,11.6c-11.4-6.9-24.7-9.1-37.2-5c-12.5,4.1-21.9,13.8-26.9,26.1c-5.1,12.4-5.8,27.5-0.9,42.4c0,0.1,0,0.1,0.1,0.2
		c4.9,14.8,14.5,26.6,25.9,33.5c11.4,6.9,24.7,9.1,37.2,5c12.5-4.1,21.9-13.8,26.9-26.1c5.1-12.4,5.8-27.6,0.9-42.5
		C109.9,30.4,100.4,18.6,88.9,11.6L88.9,11.6L88.9,11.6z M73.6,50.8c0.2,0.1,0.4,0.2,0.6,0.3l15.5-21.9c-1.5-4.9-3.7-7.8-6.4-9.1
		c-2.5-1.2-5.6-1.2-9.2-0.1L73.6,50.8L73.6,50.8L73.6,50.8z M78.1,54.1c0.4,0.6,0.8,1.2,1.1,1.8l24.8-0.3c1-5.3,0.4-10.2-1.5-14.2
		c-1.9-3.9-5-7-9.1-8.8L78.1,54.1L78.1,54.1L78.1,54.1z M80,60.8c-0.2,2.3-1.2,4.5-2.8,6C77.1,66.9,77.1,67,77,67l15.3,26.5
		c5.8-2.7,9.8-6.4,11.7-11.5c2.1-5.4,2.1-12.4,0-21.7L80,60.8L80,60.8L80,60.8z M72.7,69.4c-0.7,0.2-1.5,0.3-2.3,0.3
		c-0.2,0-0.4,0-0.5,0l-7.7,27.6c1.9,2.6,4.6,4.5,7.7,5.6c2.4,0.9,5,1.2,7.6,1.1c2.5-0.2,4.8-0.8,6.8-2.1c1.8-1.1,3.4-2.7,4.4-4.7
		L72.7,69.4L72.7,69.4L72.7,69.4z M65.2,68.1c-0.6-0.4-1.1-0.8-1.6-1.3c-0.6-0.6-1.1-1.2-1.5-1.9l-23.8,7.5c0.5,7,2.4,12.5,5.6,16.2
		c3.1,3.6,7.7,5.8,13.7,6.3L65.2,68.1L65.2,68.1L65.2,68.1z M60.8,60.2c0-0.1,0-0.2,0-0.2c0-1.7,0.4-3.2,1.1-4.6L39.7,34.2
		c-4.3,4.8-7,9.9-7.8,15.3c-0.7,5.5,0.6,11.6,4.7,18.3L60.8,60.2L60.8,60.2L60.8,60.2z M65.2,51.7c1-0.7,2.2-1.2,3.5-1.4l0.6-31.2
		c-1.7-1.7-3.8-2.7-6.2-3c-2.4-0.4-5-0.1-7.6,0.7c-2.6,0.8-5.2,2.2-7.3,4c-2.8,2.4-5,5.4-5.9,9L65.2,51.7L65.2,51.7L65.2,51.7z"/>
</g>
</svg>
