<?xml version="1.0" encoding="utf-8"?>
<!-- Generator: Adobe Illustrator 27.1.1, SVG Export Plug-In . SVG Version: 6.00 Build 0)  -->
<svg version="1.1" id="mango" xmlns="http://www.w3.org/2000/svg" xmlns:xlink="http://www.w3.org/1999/xlink" x="0px" y="0px"
	 viewBox="0 0 122.9 103" style="enable-background:new 0 0 122.9 103;" xml:space="preserve">
<style type="text/css">
	.st0{fill-rule:evenodd;clip-rule:evenodd;fill:#618b26;}
	.st1{fill-rule:evenodd;clip-rule:evenodd;fill:#7F573C;}
	.st2{fill-rule:evenodd;clip-rule:evenodd;fill:#FFA712;}
	.st3{fill-rule:evenodd;clip-rule:evenodd;fill:#F5AC31;}
	.st4{fill-rule:evenodd;clip-rule:evenodd;fill:#537918;}
#mango:hover #mango-inside{
	fill: #ffb300;
	transition: all 0.5s ease-in-out;
}
#mango:hover #mango-outside {
	fill: #e79912;
	transition: all 0.5s ease-in-out;
}
#mango:hover #leafs{
	fill: #476f0f;
	transition: all 0.5s ease-in-out;
	scale: 1.05;
}
#mango:hover #inside-leafs{
	fill: #5f950f;
	transition: all 0.5s ease-in-out;	
	scale: 1.05;
}
	
</style>
 <script>
const mango = document.querySelector("#mango");

function logId() {
	console.log(this.id)
}

mango.addEventListener("click", logId);
 </script>
<g>
	<path id="leafs" class="st0" d="M76.7,8.5C78.8,6.6,81.2,5,84,4c7.4-2.6,17.2-0.5,23.9,3.2c5.4,2.9,10.9,7.5,15,12.4
		c-5.6,2.2-13.3,3.2-21.8,3.7c-6.4,0.4-12.4-0.6-18.2-3.5l0.3,0.3L83,19.9c-3-2.1-6-4.2-8.6-6.4L76.7,8.5L76.7,8.5L76.7,8.5z"/>
	<path class="st1" d="M76.6,8.6l0.1-0.1L76.6,8.6l-2.2,4.9c-1.6-1.3-3.2-2.8-4.7-4.1l3.9-7.9c0.7-1.4,2.5-2,3.9-1.3s2,2.5,1.3,3.9
		L76.6,8.6L76.6,8.6L76.6,8.6z"/>
	<path id="mango-outside" class="st2" d="M82.2,27.1c-1.4-2.3-3.2-4.5-5.2-6.6c-2-2-4.4-4-7.1-5.7C62,11.9,54.9,11,48.6,12
		c-6.7,1-12.6,4.1-17.7,8.8c-9.5,8.8-10,15.9-10.6,24.8c-0.2,3.7-0.5,7.6-1.4,12.1c-1,5-2.4,9.4-4.3,13.2c-2,4-4.4,7.4-7,10
		c-2.2,3-3.1,5.5-2.4,7.5v0.1c0.7,2.1,3,3.9,7,5.4c0.1,0,0.1,0,0.1,0.1c13.1,5.2,26.6,5.4,38.7,1.3c12-4.1,22.4-12.4,29.4-24.5
		c4.2-7.3,6.8-15.2,7.1-23C87.8,40.7,86.2,33.7,82.2,27.1L82.2,27.1L82.2,27.1z M82.9,19.8c1.3,1.5,2.4,3.1,3.4,4.8
		c4.6,7.5,6.4,15.4,6.1,23.3c-0.3,8.7-3.2,17.4-7.8,25.3c-7.6,13.2-19,22.3-32,26.8c-13.1,4.4-27.9,4.2-42-1.4c-0.1,0-0.1,0-0.1-0.1
		c-5.4-2.2-8.7-5-9.9-8.5c0,0,0-0.1-0.1-0.1c-1.1-3.6,0-7.7,3.3-12.1l0,0C3.9,77.7,4,77.6,4,77.5c2.3-2.2,4.4-5.2,6.1-8.8
		c1.7-3.4,3-7.4,3.9-12c0.8-4.2,1.1-8,1.3-11.5c0.7-9.9,1.2-17.9,12.1-28.1c5.8-5.3,12.6-8.8,20.3-10c6.6-1,13.9-0.3,22,2.4
		C74.9,12.1,79.4,15.4,82.9,19.8L82.9,19.8z"/>
	<path id="mango-inside" class="st3" d="M83.7,26.2c-1.5-2.4-3.3-4.7-5.5-6.8c-2.1-2.1-4.6-4.1-7.5-5.9c-8.3-3-15.7-3.9-22.3-2.9
		c-7,1.1-13.2,4.2-18.5,9.1c-9.9,9-10.4,16.4-11,25.5c-0.3,3.8-0.5,7.8-1.4,12.4c-1,5.1-2.5,9.6-4.5,13.6c-2.1,4.1-4.6,7.6-7.3,10.3
		c-2.3,3.1-3.2,5.7-2.6,7.7v0.1c0.7,2.1,3.1,4,7.3,5.6c0.1,0,0.1,0,0.2,0.1c13.7,5.3,27.8,5.6,40.4,1.4
		c12.5-4.2,23.4-12.8,30.7-25.2c4.4-7.5,7.2-15.6,7.5-23.7C89.5,40.2,87.9,33,83.7,26.2L83.7,26.2L83.7,26.2z"/>
	<path id="inside-leafs" class="st4" d="M77.4,11.6c16.5,0.7,20.9-0.1,36.3,5.9C97.4,16.8,93,16.4,77.4,11.6L77.4,11.6z"/>
</g>
</svg>