<?xml version="1.0" encoding="utf-8"?>
<!-- Generator: Adobe Illustrator 27.1.1, SVG Export Plug-In . SVG Version: 6.00 Build 0)  -->
<svg version="1.1" id="strawberry" xmlns="http://www.w3.org/2000/svg" xmlns:xlink="http://www.w3.org/1999/xlink" x="0px" y="0px"
	 viewBox="0 0 91.8 122.9" style="enable-background:new 0 0 91.8 122.9;" xml:space="preserve">
<style type="text/css">
	.st0{fill:#D1372D;}
	.st1{fill:#4BA042;}
 #strawberry:hover #strawberry-body{
	fill: #e11b0c;
	transition: all 0.5s ease-in-out;
 }
 #strawberry:hover #strawberry-top{
	fill: #45b639;
	transition: all 0.5s ease-in-out;
	animation: shake 0.5s ease-in-out;
 }
 @keyframes shake {
   0% { transform: translate(0, 0); }
   10%, 30%, 50%, 70%, 90% { transform: translate(-3px, 0); }
   20%, 40%, 60%, 80% { transform: translate(3px, 0); }
   100% { transform: translate(0, 0); }
 }

</style>
<g>
	<path id="strawberry-body" class="st0" d="M64.8,31.2c-5.5,2-11.8,2.6-18,2.4c-5.7-0.2-11.1-0.6-16-1.9c-7.8-1.2-15.1-1.9-22.2,2.9
		C2.1,39.2-0.2,46.3,0,54.1c0.3,11.5,5.7,24.2,10.7,32.4c4.1,6.8,9.3,13.2,15.6,19.4c5.9,5.9,12.7,11.5,20.4,16.9
		c7.3-5.5,13.6-10.8,18.8-16.2c5.6-5.6,10.1-11.1,13.7-16.6c4.4-6.6,9.7-18.2,11.8-29.4c1.5-7.9,1.3-15.4-2-20.6
		C88.2,39,87.3,38,86.3,37c-1.1-1-2.2-1.8-3.6-2.6C75.9,30.5,70.5,30.4,64.8,31.2L64.8,31.2L64.8,31.2z M32.1,51
		c0,1.4-0.7,3-2.8,5.6c-2-3.1-2.6-4.2-2.6-5.7c0-1.4,0.8-2.8,2.6-2.8C31.1,48.1,32.1,49.5,32.1,51L32.1,51z M16.9,51
		c0,1.4-0.7,3-2.8,5.6c-2-3.1-2.6-4.2-2.6-5.7c0-1.4,0.8-2.8,2.6-2.8C15.9,48.1,16.9,49.5,16.9,51L16.9,51z M56.7,101.4
		c0,1.4-0.7,3-2.8,5.6c-2-3.1-2.6-4.2-2.6-5.7c0-1.4,0.8-2.8,2.6-2.8C55.7,98.6,56.7,100,56.7,101.4L56.7,101.4z M70.7,67.2
		c1.8,0,2.8,1.5,2.8,2.9s-0.7,3-2.8,5.6c-2-3.1-2.6-4.2-2.6-5.7C68.1,68.7,68.9,67.2,70.7,67.2L70.7,67.2z M41.2,100.5
		c0,1.4-0.7,3-2.8,5.6c-2-3.1-2.6-4.2-2.6-5.7c0-1.4,0.8-2.8,2.6-2.8C40.2,97.6,41.2,99.1,41.2,100.5L41.2,100.5z M33.3,85.7
		c0,1.4-0.7,3-2.8,5.6c-2-3.1-2.6-4.2-2.6-5.7c0-1.4,0.8-2.8,2.6-2.8C32.3,82.8,33.3,84.3,33.3,85.7L33.3,85.7z M64.8,85.7
		c0,1.4-0.7,3-2.8,5.6c-2-3.1-2.6-4.2-2.6-5.7c0-1.4,0.8-2.8,2.6-2.8C63.8,82.8,64.8,84.3,64.8,85.7L64.8,85.7z M80.3,51
		c0,1.4-0.7,3-2.8,5.6c-2-3.1-2.6-4.2-2.6-5.7c0-1.4,0.8-2.8,2.6-2.8C79.3,48.1,80.3,49.5,80.3,51L80.3,51z M48.8,84.2
		c0,1.4-0.7,3-2.8,5.6c-2-3.1-2.6-4.2-2.6-5.7c0-1.4,0.8-2.8,2.6-2.8C47.8,81.3,48.8,82.8,48.8,84.2L48.8,84.2z M58.5,69
		c0,1.4-0.7,3-2.8,5.6c-2-3.1-2.6-4.2-2.6-5.7c0-1.4,0.8-2.8,2.6-2.8S58.5,67.6,58.5,69L58.5,69z M61.9,48.1c1.8,0,2.8,1.5,2.8,2.9
		s-0.7,3-2.8,5.6c-2-3.1-2.6-4.2-2.6-5.7C59.4,49.5,60.2,48.1,61.9,48.1L61.9,48.1z M40.7,69c0,1.4-0.7,3-2.8,5.6
		c-2-3.1-2.6-4.2-2.6-5.7c0-1.4,0.8-2.8,2.6-2.8C39.7,66.1,40.7,67.6,40.7,69L40.7,69z M46.9,48.1c1.8,0,2.8,1.5,2.8,2.9
		s-0.7,3-2.8,5.6c-2-3.1-2.6-4.2-2.6-5.7C44.3,49.5,45.1,48.1,46.9,48.1L46.9,48.1z M25.2,69c0,1.4-0.7,3-2.8,5.6
		c-2-3.1-2.6-4.2-2.6-5.7c0-1.4,0.8-2.8,2.6-2.8C24.2,66.1,25.2,67.6,25.2,69L25.2,69z"/>
	<path id="strawberry-top" class="st1" d="M24.5,32.4c2.6,0.3,5.3,0.7,8,1.1c4.7,0.7,9.7,1.5,14.8,1.5c4.9,0,9.3-0.2,13.5-0.9
		c3-0.5,5.8-1.7,8.7-1.9c0.4-0.2,0.8-0.5,1.2-0.7c4.6-3,8.1-7.5,9.5-14.1c-3.4-0.4-6.5-0.3-9.2,0.3c-3.3,0.7-6.2,2-8.5,3.9
		c-0.8,0.7-2,0.5-2.7-0.3c-0.5-0.6-0.5-1.3-0.3-2l0,0c1.7-3.9,2.9-8,3.2-11.8v0l0,0c0.2-2.7-0.1-5.3-0.9-7.6
		c-2.8,0.6-5.2,2.1-7.2,4.2c-2.6,2.8-4.5,6.7-5.8,11.3c-0.3,1-1.3,1.6-2.3,1.4c-0.6-0.2-1-0.5-1.3-1.1l0,0c-2-4.5-4.5-8.7-7.5-11.6
		c-1.9-1.9-4-3.2-6.3-3.5c-1.4,2.7-1.9,5.4-1.6,8c0.4,3.3,1.9,6.6,4.2,9.8c0.6,0.8,0.5,2-0.4,2.7c-0.6,0.5-1.4,0.5-2.1,0.1
		c-3.9-2-7.7-3.4-11.4-4.1c-2.9-0.6-5.7-0.7-8.3-0.3c2.3,8,6.6,12.7,12.3,15.5C24.2,32.3,24.4,32.4,24.5,32.4L24.5,32.4L24.5,32.4z"
		/>
</g>
</svg>