
<svg version="1.1" id="watermelon" xmlns="http://www.w3.org/2000/svg" xmlns:xlink="http://www.w3.org/1999/xlink" x="0px" y="0px"
	 viewBox="0 0 122.9 122.9" style="enable-background:new 0 0 122.9 122.9;" xml:space="preserve">
<style type="text/css">
	.st0{fill:#587702;}
	.st1{fill:#D83621;}
#watermelon:hover #watermelon-outside {
        transform: rotate(360deg);
        transition: transform 1s;
        transform-origin: center;
      }
      #watermelon:hover #watermelon-inside{
        fill: red;
        transition: all 0.5s ease-in-out;
      }

</style>
 <script>
const watermelon = document.querySelector("#watermelon");

function logId() {
	console.log(this.id)
}

watermelon.addEventListener("click", logId);
 </script>
<g>
	<path id="watermelon-outside" class="st0" d="M103.2,0.6c13.4,14,20,32.2,19.7,50.4c-0.3,18.2-7.5,36.4-21.5,50.4
		c-14,14-32.2,21.2-50.4,21.5c-18.2,0.3-36.5-6.3-50.5-19.8c-0.6-0.6-0.7-1.7-0.1-2.3l0,0l0,0l2.8-2.8
		c12.5,11.1,28.4,16.5,44.3,16.3c16.6-0.3,33.3-6.9,46.1-19.7c12.8-12.8,19.4-29.5,19.7-46.1l0,0c0.3-15.9-5.1-31.7-16.3-44.3
		l3.6-3.6c0.6-0.6,1.7-0.6,2.3,0C103.1,0.5,103.1,0.6,103.2,0.6L103.2,0.6L103.2,0.6z"/>
	<path id="watermelon-inside" class="st1" d="M109.1,48.9C109.3,34,104.1,19,93.5,7.3l-87,87c11.7,10.6,26.6,15.8,41.6,15.6c15.4-0.3,30.9-6.4,42.7-18.2
		C102.7,79.7,108.8,64.3,109.1,48.9L109.1,48.9L109.1,48.9z"/>
	<path d="M49.2,91.2c1-1,2.5-1.1,3.6-0.3L50,95.7c-0.3-0.1-0.6-0.3-0.8-0.6C48.1,94,48.1,92.2,49.2,91.2L49.2,91.2L49.2,91.2z
		 M28.3,91.1c1-0.9,2.4-1.1,3.5-0.3L29,95.5c-0.3-0.1-0.5-0.3-0.7-0.5C27.2,93.9,27.2,92.1,28.3,91.1L28.3,91.1L28.3,91.1z
		 M72.1,66.1c1.1-1.1,2.8-1.1,3.9,0l-2.7,4.7c-0.4-0.1-0.9-0.4-1.2-0.7C71.1,68.9,71.1,67.2,72.1,66.1L72.1,66.1L72.1,66.1z
		 M64.7,46.4c1-1,2.5-1.1,3.6-0.3l-2.8,4.8c-0.3-0.1-0.6-0.3-0.8-0.5C63.7,49.3,63.7,47.5,64.7,46.4L64.7,46.4L64.7,46.4z
		 M93.4,25.4c0.8-0.1,1.6,0.2,2.2,0.8c1.1,1.1,1.1,2.8,0,3.9c-0.6,0.6-1.4,0.9-2.2,0.8V25.4L93.4,25.4z M74.4,91.9
		c0.9-0.9,2.4-1.1,3.5-0.4l-2.8,4.8c-0.3-0.1-0.5-0.3-0.7-0.5C73.3,94.7,73.3,93,74.4,91.9L74.4,91.9L74.4,91.9z M91.9,69.3
		c0.9-0.9,2.3-1.1,3.4-0.4l-2.8,4.8c-0.2-0.1-0.4-0.3-0.6-0.5C90.8,72.1,90.8,70.4,91.9,69.3L91.9,69.3L91.9,69.3z M47.4,67.8
		c1-1,2.7-1.1,3.8-0.1l-2.7,4.7c-0.4-0.1-0.7-0.3-1-0.7C46.3,70.6,46.3,68.8,47.4,67.8L47.4,67.8L47.4,67.8z M95.4,47.9
		c0.4,0.1,0.8,0.3,1.1,0.7c1.1,1.1,1.1,2.8,0,3.9c-1.1,1-2.7,1.1-3.8,0.1L95.4,47.9L95.4,47.9z"/>
	<path d="M81.2,44.1c0.9-1,2.4-1.1,3.5-0.3L82,48.6c-0.3-0.1-0.5-0.3-0.7-0.5C80.1,47,80.1,45.2,81.2,44.1L81.2,44.1L81.2,44.1z"/>
</g>
</svg>
